<svg width="130" height="135" viewBox="0 0 130 135" xmlns="http://www.w3.org/2000/svg"><title>Shape</title><path d="M128.979 134.997a1.022 1.022 0 0 0 .913-1.479l-27.736-55.443c-.207-.43-.09-.945.282-1.242 13.979-11.087 22.844-26.546 18.328-43.572C115.693 14.143 98.453.338 78.659.143 54.138-.103 26.41.043 1.74.04A1.718 1.718 0 0 0 .02 1.758C.019 16.575.003 122.466 0 133.984 0 134.545.455 135 1.016 135h21.636a.774.774 0 0 0 .45-.15l46.555-33.897-11.63-21.089-32.692 20.778a1.755 1.755 0 0 1-2.68-1.488c0-22.26 0-52.806-.038-74.214 0-1.88.678-2.364 2.458-2.358 17.56.056 35.12 0 52.68.065 9.114.038 17.057 5.725 20.43 14.37 3.067 7.856 1.268 14.42-3.755 19.697-1.267 1.332-4.635 4.038-9.965 7.622l-14.417 8.872 33.617 60.92c.31.544.89.877 1.516.869h23.798z" fill="#1E1E1E"/></svg>